<mxfile host="65bd71144e">
    <diagram id="3BZde0shsiZC19KxD_37" name="第 1 页">
        <mxGraphModel dx="1285" dy="1129" grid="1" gridSize="10" guides="1" tooltips="1" connect="1" arrows="1" fold="1" page="1" pageScale="1" pageWidth="827" pageHeight="1169" math="0" shadow="0">
            <root>
                <mxCell id="0"/>
                <mxCell id="1" parent="0"/>
                <mxCell id="4" value="收益" style="rounded=1;whiteSpace=wrap;html=1;fillColor=#d80073;strokeColor=#A50040;fontSize=20;fontColor=#ffffff;" vertex="1" parent="1">
                    <mxGeometry x="190" y="740" width="120" height="60" as="geometry"/>
                </mxCell>
                <mxCell id="5" value="=" style="ellipse;whiteSpace=wrap;html=1;aspect=fixed;fontSize=16;" vertex="1" parent="1">
                    <mxGeometry x="335" y="750" width="40" height="40" as="geometry"/>
                </mxCell>
                <mxCell id="6" value="胜率" style="rounded=1;whiteSpace=wrap;html=1;fillColor=#60a917;strokeColor=#2D7600;fontSize=20;fontColor=#ffffff;" vertex="1" parent="1">
                    <mxGeometry x="400" y="740" width="120" height="60" as="geometry"/>
                </mxCell>
                <mxCell id="7" value="x" style="ellipse;whiteSpace=wrap;html=1;aspect=fixed;fontSize=16;" vertex="1" parent="1">
                    <mxGeometry x="545" y="750" width="40" height="40" as="geometry"/>
                </mxCell>
                <mxCell id="8" value="赔率" style="rounded=1;whiteSpace=wrap;html=1;fillColor=#e51400;strokeColor=#B20000;fontSize=20;fontColor=#ffffff;" vertex="1" parent="1">
                    <mxGeometry x="610" y="740" width="120" height="60" as="geometry"/>
                </mxCell>
                <mxCell id="9" value="x" style="ellipse;whiteSpace=wrap;html=1;aspect=fixed;fontSize=16;" vertex="1" parent="1">
                    <mxGeometry x="754" y="750" width="40" height="40" as="geometry"/>
                </mxCell>
                <mxCell id="10" value="周转率" style="rounded=1;whiteSpace=wrap;html=1;fillColor=#a0522d;strokeColor=#6D1F00;fontSize=20;fontColor=#ffffff;" vertex="1" parent="1">
                    <mxGeometry x="819" y="740" width="120" height="60" as="geometry"/>
                </mxCell>
                <mxCell id="12" value="x" style="ellipse;whiteSpace=wrap;html=1;aspect=fixed;fontSize=16;" vertex="1" parent="1">
                    <mxGeometry x="964" y="750" width="40" height="40" as="geometry"/>
                </mxCell>
                <mxCell id="13" value="杠杆率" style="rounded=1;whiteSpace=wrap;html=1;fillColor=#e51400;strokeColor=#B20000;fontSize=20;fontColor=#ffffff;" vertex="1" parent="1">
                    <mxGeometry x="1029" y="740" width="120" height="60" as="geometry"/>
                </mxCell>
            </root>
        </mxGraphModel>
    </diagram>
</mxfile>